<svg width="118" height="41" viewBox="0 0 118 41" fill="none" xmlns="http://www.w3.org/2000/svg">
<path d="M49.676 15.092C50.9333 15.6113 52.0813 16.1307 53.12 16.65C54.1587 17.142 55.047 17.716 55.785 18.372C56.523 19.0007 57.0833 19.7387 57.466 20.586C57.876 21.406 58.081 22.4037 58.081 23.579C58.081 24.5357 57.917 25.4787 57.589 26.408C57.261 27.3373 56.7553 28.171 56.072 28.909C55.3887 29.647 54.514 30.2483 53.448 30.713C52.382 31.1503 51.111 31.369 49.635 31.369C48.6783 31.369 47.708 31.246 46.724 31C45.7673 30.754 44.879 30.3987 44.059 29.934C43.2663 29.442 42.6103 28.8407 42.091 28.13C41.599 27.4193 41.353 26.5857 41.353 25.629C41.353 24.8363 41.4897 24.1803 41.763 23.661C42.0637 23.1143 42.419 22.6907 42.829 22.39C43.2663 22.0893 43.731 21.9117 44.223 21.857C44.7423 21.775 45.2207 21.8023 45.658 21.939C46.0953 22.0757 46.437 22.349 46.683 22.759C46.9563 23.1417 47.1067 23.5653 47.134 24.03C47.1613 24.4947 47.052 24.9593 46.806 25.424C46.56 25.8887 46.1363 26.2577 45.535 26.531C44.9063 26.8317 44.5373 27.228 44.428 27.72C44.346 28.1847 44.4827 28.6493 44.838 29.114C45.2207 29.5513 45.8083 29.934 46.601 30.262C47.421 30.59 48.4323 30.754 49.635 30.754C50.7557 30.754 51.6577 30.5353 52.341 30.098C53.0517 29.6607 53.5573 29.1003 53.858 28.417C54.186 27.7063 54.3227 26.9273 54.268 26.08C54.2133 25.2053 53.9947 24.358 53.612 23.538C53.2567 22.6907 52.7373 21.898 52.054 21.16C51.3707 20.422 50.5507 19.8343 49.594 19.397C48.4733 18.8777 47.421 18.3583 46.437 17.839C45.453 17.2923 44.592 16.6773 43.854 15.994C43.116 15.3107 42.5283 14.5317 42.091 13.657C41.681 12.7823 41.476 11.7437 41.476 10.541C41.476 9.393 41.6673 8.34067 42.05 7.384C42.4327 6.4 42.9657 5.55267 43.649 4.842C44.3597 4.104 45.1933 3.53 46.15 3.12C47.134 2.71 48.2273 2.505 49.43 2.505C50.7147 2.505 51.8627 2.69633 52.874 3.079C53.9127 3.46166 54.7873 3.96733 55.498 4.596C56.2087 5.19733 56.7553 5.89433 57.138 6.687C57.5207 7.47967 57.712 8.27233 57.712 9.065C57.712 9.85767 57.6027 10.5137 57.384 11.033C57.1653 11.5523 56.8783 11.9623 56.523 12.263C56.195 12.5637 55.826 12.7687 55.416 12.878C55.006 12.96 54.6233 12.96 54.268 12.878C53.858 12.7687 53.4753 12.55 53.12 12.222C52.7647 11.8667 52.5187 11.4703 52.382 11.033C52.2727 10.5683 52.3 10.09 52.464 9.598C52.628 9.07867 53.0107 8.60033 53.612 8.163C54.1313 7.78033 54.4593 7.302 54.596 6.728C54.7327 6.154 54.637 5.60733 54.309 5.088C54.0083 4.54133 53.448 4.07667 52.628 3.694C51.8353 3.31133 50.7693 3.12 49.43 3.12C48.3093 3.12 47.38 3.366 46.642 3.858C45.9313 4.32266 45.412 4.924 45.084 5.662C44.756 6.4 44.6057 7.23367 44.633 8.163C44.6603 9.065 44.8653 9.967 45.248 10.869C45.658 11.7437 46.232 12.5637 46.97 13.329C47.708 14.0943 48.61 14.682 49.676 15.092ZM67.4159 11.771C67.9625 11.771 68.6322 11.894 69.4249 12.14C70.2449 12.3587 71.0239 12.8233 71.7619 13.534C72.4999 14.2447 73.1285 15.2423 73.6479 16.527C74.1945 17.8117 74.4679 19.52 74.4679 21.652V21.734C74.4679 23.8387 74.1945 25.5197 73.6479 26.777C73.1285 28.0343 72.4999 29.0047 71.7619 29.688C71.0239 30.344 70.2449 30.7813 69.4249 31C68.6322 31.1913 67.9625 31.287 67.4159 31.287C66.8692 31.287 66.1859 31.1913 65.3659 31C64.5732 30.7813 63.8079 30.344 63.0699 29.688C62.3319 29.0047 61.6895 28.0343 61.1429 26.777C60.6235 25.5197 60.3639 23.8387 60.3639 21.734V21.652C60.3639 19.52 60.6235 17.8117 61.1429 16.527C61.6895 15.2423 62.3319 14.2447 63.0699 13.534C63.8079 12.8233 64.5732 12.3587 65.3659 12.14C66.1859 11.894 66.8692 11.771 67.4159 11.771ZM70.4909 21.734C70.4909 20.586 70.4635 19.4517 70.4089 18.331C70.3815 17.2103 70.2585 16.2127 70.0399 15.338C69.8485 14.436 69.5479 13.7117 69.1379 13.165C68.7279 12.591 68.1539 12.304 67.4159 12.304C66.6779 12.304 66.1039 12.591 65.6939 13.165C65.2839 13.7117 64.9695 14.436 64.7509 15.338C64.5595 16.2127 64.4365 17.2103 64.3819 18.331C64.3545 19.4243 64.3409 20.5313 64.3409 21.652V21.734C64.3409 22.8547 64.3545 23.9617 64.3819 25.055C64.4365 26.121 64.5595 27.0777 64.7509 27.925C64.9695 28.7723 65.2839 29.4557 65.6939 29.975C66.1039 30.4943 66.6779 30.754 67.4159 30.754C68.1539 30.754 68.7279 30.4943 69.1379 29.975C69.5479 29.4557 69.8485 28.7723 70.0399 27.925C70.2585 27.0777 70.3815 26.121 70.4089 25.055C70.4635 23.9617 70.4909 22.8547 70.4909 21.734ZM86.8393 11.689C87.7413 11.689 88.493 12.017 89.0943 12.673C89.723 13.329 90.0373 14.0807 90.0373 14.928C90.0373 15.6933 89.8323 16.322 89.4223 16.814C89.0123 17.2787 88.534 17.511 87.9873 17.511C87.6593 17.511 87.345 17.4427 87.0443 17.306C86.771 17.1693 86.5523 16.9917 86.3883 16.773C86.2243 16.5543 86.1286 16.2947 86.1013 15.994C86.074 15.666 86.156 15.3107 86.3473 14.928C86.7026 14.2447 86.8256 13.7117 86.7163 13.329C86.6343 12.9463 86.3746 12.755 85.9373 12.755C85.5273 12.7277 84.967 12.919 84.2563 13.329C83.573 13.7117 82.794 14.3267 81.9193 15.174V27.105C81.9466 27.6243 82.0013 28.0753 82.0833 28.458C82.138 28.8133 82.2063 29.1277 82.2883 29.401C82.3976 29.6743 82.548 29.811 82.7393 29.811C82.958 29.811 83.122 29.8793 83.2313 30.016C83.3406 30.1253 83.3953 30.262 83.3953 30.426C83.3953 30.5627 83.327 30.6993 83.1903 30.836C83.081 30.9453 82.9306 31 82.7393 31H77.1633C76.9446 31 76.7806 30.9453 76.6713 30.836C76.562 30.6993 76.5073 30.5627 76.5073 30.426C76.5073 30.262 76.562 30.1253 76.6713 30.016C76.7806 29.8793 76.9446 29.811 77.1633 29.811C77.3273 29.811 77.4503 29.6743 77.5323 29.401C77.6416 29.1277 77.7236 28.8133 77.7783 28.458C77.8603 28.0753 77.915 27.6243 77.9423 27.105V15.461C77.9423 15.297 77.9013 15.1603 77.8193 15.051C77.7373 14.9143 77.6416 14.7913 77.5323 14.682C77.423 14.5727 77.3 14.4633 77.1633 14.354C76.9173 14.2447 76.7396 14.1217 76.6303 13.985C76.5483 13.8483 76.521 13.7117 76.5483 13.575C76.603 13.4383 76.7943 13.288 77.1223 13.124L79.5823 11.648C79.9103 11.4293 80.2656 11.3747 80.6483 11.484C81.031 11.566 81.3316 11.771 81.5503 12.099C81.687 12.3177 81.7826 12.591 81.8373 12.919C81.892 13.2197 81.9193 13.698 81.9193 14.354C82.056 14.2173 82.2746 13.9987 82.5753 13.698C82.9033 13.3973 83.286 13.0967 83.7233 12.796C84.1606 12.4953 84.639 12.2357 85.1583 12.017C85.705 11.7983 86.2653 11.689 86.8393 11.689ZM98.5557 29.811C98.7744 29.811 98.9384 29.8793 99.0477 30.016C99.157 30.1253 99.2117 30.262 99.2117 30.426C99.2117 30.5627 99.1434 30.6993 99.0067 30.836C98.8974 30.9453 98.747 31 98.5557 31H92.9797C92.761 31 92.597 30.9453 92.4877 30.836C92.3784 30.6993 92.3237 30.5627 92.3237 30.426C92.3237 30.262 92.3784 30.1253 92.4877 30.016C92.597 29.8793 92.761 29.811 92.9797 29.811C93.2804 29.811 93.499 29.5513 93.6357 29.032C93.7997 28.5127 93.8817 27.966 93.8817 27.392V15.748C93.8817 15.584 93.827 15.4473 93.7177 15.338C93.6357 15.2013 93.54 15.0783 93.4307 14.969C93.294 14.8597 93.1437 14.7503 92.9797 14.641C92.7337 14.5317 92.556 14.4087 92.4467 14.272C92.3647 14.1353 92.3374 13.9987 92.3647 13.862C92.4194 13.7253 92.6107 13.575 92.9387 13.411C93.7587 13.0283 94.524 12.7003 95.2347 12.427C95.9727 12.1537 96.4374 11.9897 96.6287 11.935C96.8747 11.853 97.0524 11.7983 97.1617 11.771C97.2984 11.7163 97.394 11.7027 97.4487 11.73C97.5307 11.7573 97.5717 11.8393 97.5717 11.976C97.599 12.1127 97.6127 12.345 97.6127 12.673V27.556C97.64 28.1027 97.722 28.622 97.8587 29.114C98.0227 29.5787 98.255 29.811 98.5557 29.811ZM95.5217 10.746C94.9204 10.746 94.401 10.541 93.9637 10.131C93.5264 9.69367 93.3077 9.16067 93.3077 8.532C93.3077 7.90333 93.5264 7.384 93.9637 6.974C94.401 6.53666 94.9204 6.318 95.5217 6.318C96.1504 6.318 96.6697 6.53666 97.0797 6.974C97.517 7.384 97.7357 7.90333 97.7357 8.532C97.7357 9.16067 97.517 9.69367 97.0797 10.131C96.6697 10.541 96.1504 10.746 95.5217 10.746ZM115.918 29.811C116.137 29.811 116.301 29.8793 116.41 30.016C116.519 30.1253 116.574 30.262 116.574 30.426C116.574 30.5627 116.506 30.6993 116.369 30.836C116.26 30.9453 116.109 31 115.918 31H111.777C111.613 31 111.463 30.9453 111.326 30.836C111.189 30.7267 111.107 30.5763 111.08 30.385V29.606C110.561 30.0707 109.946 30.467 109.235 30.795C108.552 31.123 107.636 31.287 106.488 31.287C105.887 31.287 105.272 31.1777 104.643 30.959C104.014 30.7403 103.44 30.426 102.921 30.016C102.429 29.5787 102.019 29.0457 101.691 28.417C101.363 27.761 101.199 27.023 101.199 26.203C101.199 25.219 101.418 24.3717 101.855 23.661C102.32 22.923 102.921 22.3217 103.659 21.857C104.424 21.3923 105.285 21.0507 106.242 20.832C107.199 20.6133 108.169 20.504 109.153 20.504C109.563 20.504 109.932 20.5177 110.26 20.545C110.588 20.5723 110.861 20.5997 111.08 20.627V17.716C111.08 17.0873 111.08 16.4587 111.08 15.83C111.107 15.174 111.066 14.6 110.957 14.108C110.848 13.5887 110.656 13.165 110.383 12.837C110.11 12.509 109.686 12.345 109.112 12.345C108.538 12.345 107.964 12.4407 107.39 12.632C106.843 12.796 106.392 13.042 106.037 13.37C105.709 13.6707 105.531 14.0533 105.504 14.518C105.477 14.9553 105.695 15.4473 106.16 15.994C106.515 16.4313 106.72 16.8687 106.775 17.306C106.857 17.7433 106.816 18.1397 106.652 18.495C106.515 18.8503 106.269 19.151 105.914 19.397C105.586 19.6157 105.217 19.7387 104.807 19.766C103.96 19.8207 103.304 19.6157 102.839 19.151C102.374 18.6863 102.142 18.085 102.142 17.347C102.142 16.8003 102.265 16.199 102.511 15.543C102.757 14.887 103.153 14.2857 103.7 13.739C104.247 13.165 104.957 12.7003 105.832 12.345C106.734 11.9623 107.827 11.771 109.112 11.771C111.162 11.771 112.638 12.263 113.54 13.247C114.469 14.2037 114.934 15.7207 114.934 17.798L114.975 26.9C114.975 27.228 114.989 27.5697 115.016 27.925C115.043 28.253 115.084 28.5673 115.139 28.868C115.221 29.1413 115.317 29.3737 115.426 29.565C115.563 29.729 115.727 29.811 115.918 29.811ZM107.964 30.18C108.675 30.18 109.29 30.0297 109.809 29.729C110.328 29.4283 110.752 29.1003 111.08 28.745V21.447C110.916 21.365 110.684 21.283 110.383 21.201C110.082 21.0917 109.672 21.037 109.153 21.037C107.786 21.037 106.761 21.5017 106.078 22.431C105.422 23.3603 105.094 24.6177 105.094 26.203C105.094 27.597 105.354 28.6083 105.873 29.237C106.392 29.8657 107.089 30.18 107.964 30.18Z" fill="#020826"/>
<rect y="2" width="10" height="23" fill="#EADDCF"/>
<rect x="13" y="11" width="10" height="23" fill="#EADDCF"/>
<rect x="6" y="6" width="10" height="23" fill="#020826"/>
</svg>
